G75*
%MOIN*%
%OFA0B0*%
%FSLAX24Y24*%
%IPPOS*%
%LPD*%
%AMOC8*
5,1,8,0,0,1.08239X$1,22.5*
%
%ADD10R,0.1535X0.1535*%
%ADD11R,0.1260X0.1260*%
%ADD12R,0.0591X0.0512*%
%ADD13R,0.0800X0.0260*%
%ADD14R,0.0472X0.0472*%
%ADD15R,0.0551X0.0433*%
%ADD16R,0.0433X0.0551*%
%ADD17C,0.0120*%
%ADD18C,0.0160*%
%ADD19C,0.0396*%
D10*
X005180Y004180D03*
D11*
X001952Y004180D03*
X008408Y004180D03*
D12*
X009430Y009095D03*
X009430Y009765D03*
X007180Y009765D03*
X007180Y009095D03*
D13*
X006390Y011930D03*
X006390Y012430D03*
X006390Y012930D03*
X006390Y013430D03*
X003970Y013430D03*
X003970Y012930D03*
X003970Y012430D03*
X003970Y011930D03*
D14*
X004767Y017180D03*
X005593Y017180D03*
X011267Y017180D03*
X012093Y017180D03*
D15*
X010680Y014574D03*
X010680Y013786D03*
X010680Y011574D03*
X010680Y010786D03*
D16*
X008574Y017180D03*
X007786Y017180D03*
X002574Y017180D03*
X001786Y017180D03*
D17*
X002574Y017180D02*
X002610Y017210D01*
X004710Y017210D01*
X004767Y017180D01*
X005593Y017180D02*
X005610Y017110D01*
X005610Y016710D01*
X002810Y013910D01*
X002810Y011910D01*
X003410Y011310D01*
X004510Y011310D01*
X004810Y011610D01*
X004810Y012310D01*
X004710Y012410D01*
X004010Y012410D01*
X003970Y012430D01*
X003970Y011930D02*
X003910Y011910D01*
X003410Y011910D01*
X003310Y011810D01*
X003110Y012010D01*
X003110Y013710D01*
X003410Y014010D01*
X006010Y014010D01*
X006110Y013910D01*
X007510Y015310D01*
X012110Y015310D01*
X012110Y017110D01*
X012093Y017180D01*
X011267Y017180D02*
X011210Y017210D01*
X008610Y017210D01*
X008574Y017180D01*
X007786Y017180D02*
X007710Y017210D01*
X005610Y017210D01*
X005593Y017180D01*
X006110Y013910D02*
X006310Y013710D01*
X006310Y013510D01*
X006390Y013430D01*
X006390Y012930D02*
X006410Y012910D01*
X007210Y012910D01*
X008910Y014610D01*
X010610Y014610D01*
X010680Y014574D01*
X010710Y014610D01*
X011210Y014610D01*
X011410Y014410D01*
X011410Y013410D01*
X009910Y011910D01*
X009910Y011010D01*
X010110Y010810D01*
X010610Y010810D01*
X010680Y010786D01*
X010680Y011574D02*
X010610Y011610D01*
X010510Y011710D01*
X010510Y011810D01*
X012110Y013410D01*
X012110Y015310D01*
X010680Y013786D02*
X010610Y013810D01*
X008510Y013810D01*
X007110Y012410D01*
X007910Y011610D01*
X007910Y008510D01*
X007810Y008410D01*
X007210Y008410D01*
X007180Y009095D01*
X006390Y007970D02*
X006680Y007680D01*
X008930Y007680D01*
X009430Y008180D01*
X009430Y008930D01*
X009910Y007610D02*
X010110Y007610D01*
X011410Y008910D01*
X011410Y011410D01*
X011210Y011610D01*
X010710Y011610D01*
X010680Y011574D01*
X009910Y007610D02*
X007210Y004910D01*
X006710Y005410D01*
X004210Y005410D01*
X003010Y004210D01*
X002010Y004210D01*
X001952Y004180D01*
X006390Y007970D02*
X006390Y011930D01*
X006410Y012410D02*
X006390Y012430D01*
X006310Y012410D01*
X005610Y012410D01*
X005110Y012910D01*
X004010Y012910D01*
X003970Y012930D01*
X006410Y012410D02*
X007110Y012410D01*
X007210Y004910D02*
X007910Y004210D01*
X008310Y004210D01*
X008408Y004180D01*
D18*
X001160Y003457D02*
X001160Y002173D01*
X001274Y002287D01*
X001538Y002396D01*
X001822Y002396D01*
X002086Y002287D01*
X002287Y002086D01*
X002396Y001822D01*
X002396Y001538D01*
X002287Y001274D01*
X002173Y001160D01*
X012570Y001160D01*
X012570Y018696D01*
X001160Y018696D01*
X001160Y004903D01*
X001247Y004990D01*
X002656Y004990D01*
X002762Y004884D01*
X002762Y004450D01*
X002911Y004450D01*
X004007Y005546D01*
X004074Y005613D01*
X004162Y005650D01*
X006758Y005650D01*
X006846Y005613D01*
X007210Y005249D01*
X009707Y007746D01*
X009774Y007813D01*
X009862Y007850D01*
X010011Y007850D01*
X011170Y009009D01*
X011170Y011311D01*
X011136Y011345D01*
X011136Y011283D01*
X011033Y011180D01*
X011136Y011077D01*
X011136Y010495D01*
X011030Y010390D01*
X010330Y010390D01*
X010224Y010495D01*
X010224Y010570D01*
X010062Y010570D01*
X009974Y010607D01*
X009774Y010807D01*
X009707Y010874D01*
X009670Y010962D01*
X009670Y011958D01*
X009707Y012046D01*
X011170Y013509D01*
X011170Y014311D01*
X011136Y014345D01*
X011136Y014283D01*
X011033Y014180D01*
X011136Y014077D01*
X011136Y013495D01*
X011030Y013390D01*
X010330Y013390D01*
X010224Y013495D01*
X010224Y013570D01*
X008609Y013570D01*
X007449Y012410D01*
X008046Y011813D01*
X008046Y011813D01*
X008113Y011746D01*
X008150Y011658D01*
X008150Y008462D01*
X008113Y008374D01*
X008046Y008307D01*
X007946Y008207D01*
X007858Y008170D01*
X007215Y008170D01*
X007173Y008168D01*
X007168Y008170D01*
X007162Y008170D01*
X007123Y008186D01*
X007083Y008201D01*
X007079Y008204D01*
X007074Y008207D01*
X007044Y008237D01*
X007013Y008265D01*
X007010Y008270D01*
X007007Y008274D01*
X006990Y008313D01*
X006972Y008352D01*
X006972Y008357D01*
X006970Y008362D01*
X006970Y008405D01*
X006959Y008659D01*
X006810Y008659D01*
X006705Y008765D01*
X006705Y009426D01*
X006717Y009439D01*
X006717Y009439D01*
X006705Y009485D01*
X006705Y009717D01*
X007132Y009717D01*
X007132Y009813D01*
X007132Y010201D01*
X006861Y010201D01*
X006815Y010188D01*
X006774Y010165D01*
X006741Y010131D01*
X006717Y010090D01*
X006705Y010044D01*
X006705Y009813D01*
X007132Y009813D01*
X007228Y009813D01*
X007228Y010201D01*
X007499Y010201D01*
X007545Y010188D01*
X007586Y010165D01*
X007619Y010131D01*
X007643Y010090D01*
X007655Y010044D01*
X007655Y009813D01*
X007228Y009813D01*
X007228Y009717D01*
X007655Y009717D01*
X007655Y009485D01*
X007643Y009439D01*
X007643Y009439D01*
X007655Y009426D01*
X007655Y008765D01*
X007550Y008659D01*
X007439Y008659D01*
X007440Y008650D01*
X007670Y008650D01*
X007670Y011511D01*
X007011Y012170D01*
X006935Y012170D01*
X006970Y012135D01*
X006970Y011725D01*
X006865Y011620D01*
X006630Y011620D01*
X006630Y008069D01*
X006779Y007920D01*
X008831Y007920D01*
X009190Y008279D01*
X009190Y008659D01*
X009060Y008659D01*
X008955Y008765D01*
X008955Y009426D01*
X008967Y009439D01*
X008967Y009439D01*
X008955Y009485D01*
X008955Y009717D01*
X009382Y009717D01*
X009382Y009813D01*
X009382Y010201D01*
X009111Y010201D01*
X009065Y010188D01*
X009024Y010165D01*
X008991Y010131D01*
X008967Y010090D01*
X008955Y010044D01*
X008955Y009813D01*
X009382Y009813D01*
X009478Y009813D01*
X009478Y010201D01*
X009749Y010201D01*
X009795Y010188D01*
X009836Y010165D01*
X009869Y010131D01*
X009893Y010090D01*
X009905Y010044D01*
X009905Y009813D01*
X009478Y009813D01*
X009478Y009717D01*
X009905Y009717D01*
X009905Y009485D01*
X009893Y009439D01*
X009893Y009439D01*
X009905Y009426D01*
X009905Y008765D01*
X009800Y008659D01*
X009670Y008659D01*
X009670Y008132D01*
X009633Y008044D01*
X009566Y007977D01*
X009066Y007477D01*
X008978Y007440D01*
X006632Y007440D01*
X006544Y007477D01*
X006477Y007544D01*
X006187Y007834D01*
X006150Y007922D01*
X006150Y011620D01*
X005915Y011620D01*
X005810Y011725D01*
X005810Y012135D01*
X005845Y012170D01*
X005562Y012170D01*
X005474Y012207D01*
X005407Y012274D01*
X005011Y012670D01*
X004515Y012670D01*
X004535Y012650D01*
X004758Y012650D01*
X004846Y012613D01*
X004946Y012513D01*
X005013Y012446D01*
X005050Y012358D01*
X005050Y011562D01*
X005013Y011474D01*
X004713Y011174D01*
X004646Y011107D01*
X004558Y011070D01*
X003362Y011070D01*
X003274Y011107D01*
X002674Y011707D01*
X002607Y011774D01*
X002570Y011862D01*
X002570Y013958D01*
X002607Y014046D01*
X005324Y016764D01*
X005283Y016764D01*
X005180Y016866D01*
X005077Y016764D01*
X004456Y016764D01*
X004350Y016869D01*
X004350Y016970D01*
X002970Y016970D01*
X002970Y016830D01*
X002865Y016724D01*
X002283Y016724D01*
X002177Y016830D01*
X002177Y016860D01*
X002171Y016835D01*
X002147Y016794D01*
X002113Y016760D01*
X002072Y016737D01*
X002027Y016724D01*
X001815Y016724D01*
X001815Y017152D01*
X001758Y017152D01*
X001390Y017152D01*
X001390Y016881D01*
X001402Y016835D01*
X001426Y016794D01*
X001459Y016760D01*
X001500Y016737D01*
X001546Y016724D01*
X001758Y016724D01*
X001758Y017152D01*
X001758Y017208D01*
X001390Y017208D01*
X001390Y017479D01*
X001402Y017525D01*
X001426Y017566D01*
X001459Y017600D01*
X001500Y017623D01*
X001546Y017636D01*
X001758Y017636D01*
X001758Y017208D01*
X001815Y017208D01*
X001815Y017636D01*
X002027Y017636D01*
X002072Y017623D01*
X002113Y017600D01*
X002147Y017566D01*
X002171Y017525D01*
X002177Y017500D01*
X002177Y017530D01*
X002283Y017636D01*
X002865Y017636D01*
X002970Y017530D01*
X002970Y017450D01*
X004350Y017450D01*
X004350Y017491D01*
X004456Y017596D01*
X005077Y017596D01*
X005180Y017494D01*
X005283Y017596D01*
X005904Y017596D01*
X006010Y017491D01*
X006010Y017450D01*
X007390Y017450D01*
X007390Y017530D01*
X007495Y017636D01*
X008077Y017636D01*
X008180Y017533D01*
X008283Y017636D01*
X008865Y017636D01*
X008970Y017530D01*
X008970Y017450D01*
X010850Y017450D01*
X010850Y017491D01*
X010956Y017596D01*
X011577Y017596D01*
X011680Y017494D01*
X011783Y017596D01*
X012404Y017596D01*
X012510Y017491D01*
X012510Y016869D01*
X012404Y016764D01*
X012350Y016764D01*
X012350Y013362D01*
X012313Y013274D01*
X011010Y011970D01*
X011030Y011970D01*
X011136Y011865D01*
X011136Y011850D01*
X011258Y011850D01*
X011346Y011813D01*
X011413Y011746D01*
X011613Y011546D01*
X011650Y011458D01*
X012570Y011458D01*
X012570Y011300D02*
X011650Y011300D01*
X011650Y011458D02*
X011650Y008862D01*
X011613Y008774D01*
X011546Y008707D01*
X010246Y007407D01*
X010158Y007370D01*
X010009Y007370D01*
X007549Y004910D01*
X007598Y004861D01*
X007598Y004884D01*
X007704Y004990D01*
X009113Y004990D01*
X009218Y004884D01*
X009218Y003476D01*
X009113Y003370D01*
X007704Y003370D01*
X007598Y003476D01*
X007598Y004182D01*
X007074Y004707D01*
X006611Y005170D01*
X004309Y005170D01*
X003146Y004007D01*
X003058Y003970D01*
X002762Y003970D01*
X002762Y003476D01*
X002656Y003370D01*
X001247Y003370D01*
X001160Y003457D01*
X001160Y003375D02*
X001243Y003375D01*
X001160Y003216D02*
X012570Y003216D01*
X012570Y003058D02*
X010757Y003058D01*
X010755Y003058D02*
X010605Y003058D01*
X010466Y003001D01*
X010359Y002894D01*
X010302Y002755D01*
X010302Y002605D01*
X010359Y002466D01*
X010466Y002359D01*
X010605Y002302D01*
X010755Y002302D01*
X010894Y002359D01*
X011001Y002466D01*
X011058Y002605D01*
X011058Y002755D01*
X011001Y002894D01*
X010894Y003001D01*
X010755Y003058D01*
X010603Y003058D02*
X001160Y003058D01*
X001160Y002899D02*
X010364Y002899D01*
X010302Y002741D02*
X001160Y002741D01*
X001160Y002582D02*
X010311Y002582D01*
X010402Y002424D02*
X001160Y002424D01*
X001160Y002265D02*
X001252Y002265D01*
X002108Y002265D02*
X012570Y002265D01*
X012570Y002107D02*
X002266Y002107D01*
X002344Y001948D02*
X012570Y001948D01*
X012570Y001790D02*
X002396Y001790D01*
X002396Y001631D02*
X012570Y001631D01*
X012570Y001473D02*
X002369Y001473D01*
X002304Y001314D02*
X012570Y001314D01*
X012570Y002424D02*
X010958Y002424D01*
X011049Y002582D02*
X012570Y002582D01*
X012570Y002741D02*
X011058Y002741D01*
X010996Y002899D02*
X012570Y002899D01*
X012570Y003375D02*
X009117Y003375D01*
X009218Y003533D02*
X012570Y003533D01*
X012570Y003692D02*
X009218Y003692D01*
X009218Y003850D02*
X012570Y003850D01*
X012570Y004009D02*
X009218Y004009D01*
X009218Y004167D02*
X012570Y004167D01*
X012570Y004326D02*
X009218Y004326D01*
X009218Y004484D02*
X012570Y004484D01*
X012570Y004643D02*
X009218Y004643D01*
X009218Y004801D02*
X012570Y004801D01*
X012570Y004960D02*
X009143Y004960D01*
X008391Y005752D02*
X012570Y005752D01*
X012570Y005594D02*
X008233Y005594D01*
X008074Y005435D02*
X012570Y005435D01*
X012570Y005277D02*
X007916Y005277D01*
X007757Y005118D02*
X012570Y005118D01*
X012570Y005911D02*
X008550Y005911D01*
X008708Y006069D02*
X012570Y006069D01*
X012570Y006228D02*
X008867Y006228D01*
X009025Y006386D02*
X012570Y006386D01*
X012570Y006545D02*
X009184Y006545D01*
X009342Y006703D02*
X012570Y006703D01*
X012570Y006862D02*
X009501Y006862D01*
X009659Y007020D02*
X012570Y007020D01*
X012570Y007179D02*
X009818Y007179D01*
X009976Y007337D02*
X012570Y007337D01*
X012570Y007496D02*
X010335Y007496D01*
X010493Y007654D02*
X012570Y007654D01*
X012570Y007813D02*
X010652Y007813D01*
X010810Y007971D02*
X012570Y007971D01*
X012570Y008130D02*
X010969Y008130D01*
X011127Y008288D02*
X012570Y008288D01*
X012570Y008447D02*
X011286Y008447D01*
X011444Y008605D02*
X012570Y008605D01*
X012570Y008764D02*
X011603Y008764D01*
X011650Y008922D02*
X012570Y008922D01*
X012570Y009081D02*
X011650Y009081D01*
X011650Y009239D02*
X012570Y009239D01*
X012570Y009398D02*
X011650Y009398D01*
X011650Y009556D02*
X012570Y009556D01*
X012570Y009715D02*
X011650Y009715D01*
X011650Y009873D02*
X012570Y009873D01*
X012570Y010032D02*
X011650Y010032D01*
X011650Y010190D02*
X012570Y010190D01*
X012570Y010349D02*
X011650Y010349D01*
X011650Y010507D02*
X012570Y010507D01*
X012570Y010666D02*
X011650Y010666D01*
X011650Y010824D02*
X012570Y010824D01*
X012570Y010983D02*
X011650Y010983D01*
X011650Y011141D02*
X012570Y011141D01*
X012570Y011617D02*
X011543Y011617D01*
X011384Y011775D02*
X012570Y011775D01*
X012570Y011934D02*
X011067Y011934D01*
X011131Y012092D02*
X012570Y012092D01*
X012570Y012251D02*
X011290Y012251D01*
X011448Y012409D02*
X012570Y012409D01*
X012570Y012568D02*
X011607Y012568D01*
X011765Y012726D02*
X012570Y012726D01*
X012570Y012885D02*
X011924Y012885D01*
X012082Y013043D02*
X012570Y013043D01*
X012570Y013202D02*
X012241Y013202D01*
X012349Y013360D02*
X012570Y013360D01*
X012570Y013519D02*
X012350Y013519D01*
X012350Y013677D02*
X012570Y013677D01*
X012570Y013836D02*
X012350Y013836D01*
X012350Y013994D02*
X012570Y013994D01*
X012570Y014153D02*
X012350Y014153D01*
X012350Y014311D02*
X012570Y014311D01*
X012570Y014470D02*
X012350Y014470D01*
X012350Y014628D02*
X012570Y014628D01*
X012570Y014787D02*
X012350Y014787D01*
X012350Y014945D02*
X012570Y014945D01*
X012570Y015104D02*
X012350Y015104D01*
X012350Y015262D02*
X012570Y015262D01*
X012570Y015421D02*
X012350Y015421D01*
X012350Y015579D02*
X012570Y015579D01*
X012570Y015738D02*
X012350Y015738D01*
X012350Y015896D02*
X012570Y015896D01*
X012570Y016055D02*
X012350Y016055D01*
X012350Y016213D02*
X012570Y016213D01*
X012570Y016372D02*
X012350Y016372D01*
X012350Y016530D02*
X012570Y016530D01*
X012570Y016689D02*
X012350Y016689D01*
X012487Y016847D02*
X012570Y016847D01*
X012570Y017006D02*
X012510Y017006D01*
X012510Y017164D02*
X012570Y017164D01*
X012570Y017323D02*
X012510Y017323D01*
X012510Y017481D02*
X012570Y017481D01*
X012570Y017640D02*
X001160Y017640D01*
X001160Y017798D02*
X012570Y017798D01*
X012570Y017957D02*
X001160Y017957D01*
X001160Y018115D02*
X012570Y018115D01*
X012570Y018274D02*
X001160Y018274D01*
X001160Y018432D02*
X012570Y018432D01*
X012570Y018591D02*
X001160Y018591D01*
X001160Y017481D02*
X001390Y017481D01*
X001390Y017323D02*
X001160Y017323D01*
X001160Y017164D02*
X001758Y017164D01*
X001758Y017006D02*
X001815Y017006D01*
X001815Y016847D02*
X001758Y016847D01*
X001399Y016847D02*
X001160Y016847D01*
X001160Y016689D02*
X005249Y016689D01*
X005199Y016847D02*
X005161Y016847D01*
X005091Y016530D02*
X001160Y016530D01*
X001160Y016372D02*
X004932Y016372D01*
X004774Y016213D02*
X001160Y016213D01*
X001160Y016055D02*
X004615Y016055D01*
X004457Y015896D02*
X001160Y015896D01*
X001160Y015738D02*
X004298Y015738D01*
X004140Y015579D02*
X001160Y015579D01*
X001160Y015421D02*
X003981Y015421D01*
X003823Y015262D02*
X001160Y015262D01*
X001160Y015104D02*
X003664Y015104D01*
X003506Y014945D02*
X001160Y014945D01*
X001160Y014787D02*
X003347Y014787D01*
X003189Y014628D02*
X001160Y014628D01*
X001160Y014470D02*
X003030Y014470D01*
X002872Y014311D02*
X001160Y014311D01*
X001160Y014153D02*
X002713Y014153D01*
X002585Y013994D02*
X001160Y013994D01*
X001160Y013836D02*
X002570Y013836D01*
X002570Y013677D02*
X001160Y013677D01*
X001160Y013519D02*
X002570Y013519D01*
X002570Y013360D02*
X001160Y013360D01*
X001160Y013202D02*
X002570Y013202D01*
X002570Y013043D02*
X001160Y013043D01*
X001160Y012885D02*
X002570Y012885D01*
X002570Y012726D02*
X001160Y012726D01*
X001160Y012568D02*
X002570Y012568D01*
X002570Y012409D02*
X001160Y012409D01*
X001160Y012251D02*
X002570Y012251D01*
X002570Y012092D02*
X001160Y012092D01*
X001160Y011934D02*
X002570Y011934D01*
X002606Y011775D02*
X001160Y011775D01*
X001160Y011617D02*
X002764Y011617D01*
X002923Y011458D02*
X001160Y011458D01*
X001160Y011300D02*
X003081Y011300D01*
X003240Y011141D02*
X001160Y011141D01*
X001160Y010983D02*
X006150Y010983D01*
X006150Y011141D02*
X004680Y011141D01*
X004839Y011300D02*
X006150Y011300D01*
X006150Y011458D02*
X004997Y011458D01*
X005050Y011617D02*
X006150Y011617D01*
X005810Y011775D02*
X005050Y011775D01*
X005050Y011934D02*
X005810Y011934D01*
X005810Y012092D02*
X005050Y012092D01*
X005050Y012251D02*
X005430Y012251D01*
X005272Y012409D02*
X005029Y012409D01*
X005113Y012568D02*
X004892Y012568D01*
X005316Y013043D02*
X005810Y013043D01*
X005810Y013135D02*
X005810Y012725D01*
X005855Y012680D01*
X005825Y012650D01*
X005709Y012650D01*
X005246Y013113D01*
X005158Y013150D01*
X004535Y013150D01*
X004505Y013180D01*
X004514Y013189D01*
X004538Y013231D01*
X004550Y013276D01*
X004550Y013430D01*
X004550Y013584D01*
X004538Y013629D01*
X004514Y013671D01*
X004481Y013704D01*
X004439Y013728D01*
X004394Y013740D01*
X003970Y013740D01*
X003970Y013430D01*
X003970Y013430D01*
X004550Y013430D01*
X003970Y013430D01*
X003970Y013430D01*
X003970Y013430D01*
X003390Y013430D01*
X003390Y013584D01*
X003402Y013629D01*
X003426Y013671D01*
X003459Y013704D01*
X003501Y013728D01*
X003546Y013740D01*
X003970Y013740D01*
X003970Y013430D01*
X003390Y013430D01*
X003390Y013276D01*
X003402Y013231D01*
X003426Y013189D01*
X003435Y013180D01*
X003390Y013135D01*
X003390Y012725D01*
X003435Y012680D01*
X003390Y012635D01*
X003390Y012225D01*
X003435Y012180D01*
X003405Y012150D01*
X003362Y012150D01*
X003350Y012145D01*
X003350Y013611D01*
X003509Y013770D01*
X005911Y013770D01*
X005941Y013740D01*
X005915Y013740D01*
X005810Y013635D01*
X005810Y013225D01*
X005855Y013180D01*
X005810Y013135D01*
X005834Y013202D02*
X004521Y013202D01*
X004550Y013360D02*
X005810Y013360D01*
X005810Y013519D02*
X004550Y013519D01*
X004508Y013677D02*
X005852Y013677D01*
X005810Y012885D02*
X005475Y012885D01*
X005633Y012726D02*
X005810Y012726D01*
X006630Y011617D02*
X007564Y011617D01*
X007670Y011458D02*
X006630Y011458D01*
X006630Y011300D02*
X007670Y011300D01*
X007670Y011141D02*
X006630Y011141D01*
X006630Y010983D02*
X007670Y010983D01*
X007670Y010824D02*
X006630Y010824D01*
X006630Y010666D02*
X007670Y010666D01*
X007670Y010507D02*
X006630Y010507D01*
X006630Y010349D02*
X007670Y010349D01*
X007670Y010190D02*
X007538Y010190D01*
X007655Y010032D02*
X007670Y010032D01*
X007655Y009873D02*
X007670Y009873D01*
X007655Y009715D02*
X007670Y009715D01*
X007655Y009556D02*
X007670Y009556D01*
X007655Y009398D02*
X007670Y009398D01*
X007655Y009239D02*
X007670Y009239D01*
X007655Y009081D02*
X007670Y009081D01*
X007655Y008922D02*
X007670Y008922D01*
X007654Y008764D02*
X007670Y008764D01*
X008150Y008764D02*
X008956Y008764D01*
X008955Y008922D02*
X008150Y008922D01*
X008150Y009081D02*
X008955Y009081D01*
X008955Y009239D02*
X008150Y009239D01*
X008150Y009398D02*
X008955Y009398D01*
X008955Y009556D02*
X008150Y009556D01*
X008150Y009715D02*
X008955Y009715D01*
X008955Y009873D02*
X008150Y009873D01*
X008150Y010032D02*
X008955Y010032D01*
X009072Y010190D02*
X008150Y010190D01*
X008150Y010349D02*
X011170Y010349D01*
X011170Y010507D02*
X011136Y010507D01*
X011136Y010666D02*
X011170Y010666D01*
X011170Y010824D02*
X011136Y010824D01*
X011136Y010983D02*
X011170Y010983D01*
X011170Y011141D02*
X011072Y011141D01*
X011136Y011300D02*
X011170Y011300D01*
X011170Y010190D02*
X009788Y010190D01*
X009905Y010032D02*
X011170Y010032D01*
X011170Y009873D02*
X009905Y009873D01*
X009905Y009715D02*
X011170Y009715D01*
X011170Y009556D02*
X009905Y009556D01*
X009905Y009398D02*
X011170Y009398D01*
X011170Y009239D02*
X009905Y009239D01*
X009905Y009081D02*
X011170Y009081D01*
X011083Y008922D02*
X009905Y008922D01*
X009904Y008764D02*
X010924Y008764D01*
X010766Y008605D02*
X009670Y008605D01*
X009670Y008447D02*
X010607Y008447D01*
X010449Y008288D02*
X009670Y008288D01*
X009669Y008130D02*
X010290Y008130D01*
X010132Y007971D02*
X009560Y007971D01*
X009402Y007813D02*
X009773Y007813D01*
X009615Y007654D02*
X009243Y007654D01*
X009085Y007496D02*
X009456Y007496D01*
X009298Y007337D02*
X001160Y007337D01*
X001160Y007179D02*
X009139Y007179D01*
X008981Y007020D02*
X001160Y007020D01*
X001160Y006862D02*
X008822Y006862D01*
X008664Y006703D02*
X001160Y006703D01*
X001160Y006545D02*
X008505Y006545D01*
X008347Y006386D02*
X001160Y006386D01*
X001160Y006228D02*
X008188Y006228D01*
X008030Y006069D02*
X001160Y006069D01*
X001160Y005911D02*
X007871Y005911D01*
X007713Y005752D02*
X001160Y005752D01*
X001160Y005594D02*
X004054Y005594D01*
X003896Y005435D02*
X001160Y005435D01*
X001160Y005277D02*
X003737Y005277D01*
X003579Y005118D02*
X001160Y005118D01*
X001160Y004960D02*
X001217Y004960D01*
X002687Y004960D02*
X003420Y004960D01*
X003262Y004801D02*
X002762Y004801D01*
X002762Y004643D02*
X003103Y004643D01*
X002945Y004484D02*
X002762Y004484D01*
X003148Y004009D02*
X004232Y004009D01*
X004232Y004100D02*
X004232Y003389D01*
X004245Y003343D01*
X004268Y003302D01*
X004302Y003268D01*
X004343Y003245D01*
X004389Y003232D01*
X005100Y003232D01*
X005100Y004100D01*
X004232Y004100D01*
X004232Y004260D02*
X005100Y004260D01*
X005100Y005128D01*
X004389Y005128D01*
X004343Y005115D01*
X004302Y005092D01*
X004268Y005058D01*
X004245Y005017D01*
X004232Y004971D01*
X004232Y004260D01*
X004232Y004326D02*
X003465Y004326D01*
X003623Y004484D02*
X004232Y004484D01*
X004232Y004643D02*
X003782Y004643D01*
X003940Y004801D02*
X004232Y004801D01*
X004232Y004960D02*
X004099Y004960D01*
X004257Y005118D02*
X004352Y005118D01*
X005100Y005118D02*
X005260Y005118D01*
X005260Y005128D02*
X005260Y004260D01*
X005100Y004260D01*
X005100Y004100D01*
X005260Y004100D01*
X005260Y004260D01*
X006128Y004260D01*
X006128Y004971D01*
X006115Y005017D01*
X006092Y005058D01*
X006058Y005092D01*
X006017Y005115D01*
X005971Y005128D01*
X005260Y005128D01*
X005260Y004960D02*
X005100Y004960D01*
X005100Y004801D02*
X005260Y004801D01*
X005260Y004643D02*
X005100Y004643D01*
X005100Y004484D02*
X005260Y004484D01*
X005260Y004326D02*
X005100Y004326D01*
X005100Y004167D02*
X003306Y004167D01*
X002762Y003850D02*
X004232Y003850D01*
X004232Y003692D02*
X002762Y003692D01*
X002762Y003533D02*
X004232Y003533D01*
X004236Y003375D02*
X002661Y003375D01*
X005100Y003375D02*
X005260Y003375D01*
X005260Y003232D02*
X005971Y003232D01*
X006017Y003245D01*
X006058Y003268D01*
X006092Y003302D01*
X006115Y003343D01*
X006128Y003389D01*
X006128Y004100D01*
X005260Y004100D01*
X005260Y003232D01*
X005260Y003533D02*
X005100Y003533D01*
X005100Y003692D02*
X005260Y003692D01*
X005260Y003850D02*
X005100Y003850D01*
X005100Y004009D02*
X005260Y004009D01*
X005260Y004167D02*
X007598Y004167D01*
X007598Y004009D02*
X006128Y004009D01*
X006128Y003850D02*
X007598Y003850D01*
X007598Y003692D02*
X006128Y003692D01*
X006128Y003533D02*
X007598Y003533D01*
X007699Y003375D02*
X006124Y003375D01*
X006128Y004326D02*
X007455Y004326D01*
X007297Y004484D02*
X006128Y004484D01*
X006128Y004643D02*
X007138Y004643D01*
X006980Y004801D02*
X006128Y004801D01*
X006128Y004960D02*
X006821Y004960D01*
X006663Y005118D02*
X006008Y005118D01*
X006866Y005594D02*
X007554Y005594D01*
X007396Y005435D02*
X007024Y005435D01*
X007183Y005277D02*
X007237Y005277D01*
X007599Y004960D02*
X007673Y004960D01*
X006525Y007496D02*
X001160Y007496D01*
X001160Y007654D02*
X006367Y007654D01*
X006208Y007813D02*
X001160Y007813D01*
X001160Y007971D02*
X006150Y007971D01*
X006150Y008130D02*
X001160Y008130D01*
X001160Y008288D02*
X006150Y008288D01*
X006150Y008447D02*
X001160Y008447D01*
X001160Y008605D02*
X006150Y008605D01*
X006150Y008764D02*
X001160Y008764D01*
X001160Y008922D02*
X006150Y008922D01*
X006150Y009081D02*
X004074Y009081D01*
X004005Y009052D02*
X004144Y009109D01*
X004251Y009216D01*
X004308Y009355D01*
X004308Y009505D01*
X004251Y009644D01*
X004144Y009751D01*
X004005Y009808D01*
X003855Y009808D01*
X003716Y009751D01*
X003609Y009644D01*
X003552Y009505D01*
X003552Y009355D01*
X003609Y009216D01*
X003716Y009109D01*
X003855Y009052D01*
X004005Y009052D01*
X003786Y009081D02*
X001160Y009081D01*
X001160Y009239D02*
X003600Y009239D01*
X003552Y009398D02*
X001160Y009398D01*
X001160Y009556D02*
X003573Y009556D01*
X003680Y009715D02*
X001160Y009715D01*
X001160Y009873D02*
X006150Y009873D01*
X006150Y009715D02*
X004180Y009715D01*
X004287Y009556D02*
X006150Y009556D01*
X006150Y009398D02*
X004308Y009398D01*
X004260Y009239D02*
X006150Y009239D01*
X006630Y009239D02*
X006705Y009239D01*
X006705Y009081D02*
X006630Y009081D01*
X006630Y008922D02*
X006705Y008922D01*
X006706Y008764D02*
X006630Y008764D01*
X006630Y008605D02*
X006961Y008605D01*
X006968Y008447D02*
X006630Y008447D01*
X006630Y008288D02*
X007001Y008288D01*
X006728Y007971D02*
X008882Y007971D01*
X009040Y008130D02*
X006630Y008130D01*
X006630Y009398D02*
X006705Y009398D01*
X006705Y009556D02*
X006630Y009556D01*
X006630Y009715D02*
X006705Y009715D01*
X006705Y009873D02*
X006630Y009873D01*
X006630Y010032D02*
X006705Y010032D01*
X006630Y010190D02*
X006822Y010190D01*
X007132Y010190D02*
X007228Y010190D01*
X007228Y010032D02*
X007132Y010032D01*
X007132Y009873D02*
X007228Y009873D01*
X008150Y010507D02*
X010224Y010507D01*
X009915Y010666D02*
X008150Y010666D01*
X008150Y010824D02*
X009757Y010824D01*
X009670Y010983D02*
X008150Y010983D01*
X008150Y011141D02*
X009670Y011141D01*
X009670Y011300D02*
X008150Y011300D01*
X008150Y011458D02*
X009670Y011458D01*
X009670Y011617D02*
X008150Y011617D01*
X008084Y011775D02*
X009670Y011775D01*
X009670Y011934D02*
X007926Y011934D01*
X007767Y012092D02*
X009753Y012092D01*
X009911Y012251D02*
X007609Y012251D01*
X007450Y012409D02*
X010070Y012409D01*
X010228Y012568D02*
X007607Y012568D01*
X007765Y012726D02*
X010387Y012726D01*
X010545Y012885D02*
X007924Y012885D01*
X008082Y013043D02*
X010704Y013043D01*
X010862Y013202D02*
X008241Y013202D01*
X008399Y013360D02*
X011021Y013360D01*
X011136Y013519D02*
X011170Y013519D01*
X011170Y013677D02*
X011136Y013677D01*
X011136Y013836D02*
X011170Y013836D01*
X011170Y013994D02*
X011136Y013994D01*
X011170Y014153D02*
X011060Y014153D01*
X011136Y014311D02*
X011170Y014311D01*
X010224Y013519D02*
X008558Y013519D01*
X007247Y011934D02*
X006970Y011934D01*
X006970Y012092D02*
X007089Y012092D01*
X006970Y011775D02*
X007406Y011775D01*
X006150Y010824D02*
X001160Y010824D01*
X001160Y010666D02*
X006150Y010666D01*
X006150Y010507D02*
X001160Y010507D01*
X001160Y010349D02*
X006150Y010349D01*
X006150Y010190D02*
X001160Y010190D01*
X001160Y010032D02*
X006150Y010032D01*
X008027Y008288D02*
X009190Y008288D01*
X009190Y008447D02*
X008143Y008447D01*
X008150Y008605D02*
X009190Y008605D01*
X009382Y009873D02*
X009478Y009873D01*
X009478Y010032D02*
X009382Y010032D01*
X009382Y010190D02*
X009478Y010190D01*
X008970Y017481D02*
X010850Y017481D01*
X007390Y017481D02*
X006010Y017481D01*
X004350Y017481D02*
X002970Y017481D01*
X002970Y016847D02*
X004373Y016847D01*
X002177Y016847D02*
X002174Y016847D01*
X001815Y017323D02*
X001758Y017323D01*
X001758Y017481D02*
X001815Y017481D01*
X001390Y017006D02*
X001160Y017006D01*
X003416Y013677D02*
X003432Y013677D01*
X003390Y013519D02*
X003350Y013519D01*
X003350Y013360D02*
X003390Y013360D01*
X003419Y013202D02*
X003350Y013202D01*
X003350Y013043D02*
X003390Y013043D01*
X003390Y012885D02*
X003350Y012885D01*
X003350Y012726D02*
X003390Y012726D01*
X003390Y012568D02*
X003350Y012568D01*
X003350Y012409D02*
X003390Y012409D01*
X003390Y012251D02*
X003350Y012251D01*
X003970Y013519D02*
X003970Y013519D01*
X003970Y013677D02*
X003970Y013677D01*
D19*
X005430Y013430D03*
X003930Y009430D03*
X001930Y015180D03*
X010680Y002680D03*
M02*
